<svg id="assets" xmlns="http://www.w3.org/2000/svg" xmlns:xlink="http://www.w3.org/1999/xlink" viewBox="0 0 136 136"><defs><style>.cls-1,.cls-4{fill:none;}.cls-2{fill:#44505d;}.cls-3{clip-path:url(#clip-path);}.cls-4{stroke:#34404d;stroke-miterlimit:10;stroke-width:2px;}.cls-5{fill:#b8a815;}.cls-6{fill:#6da131;}.cls-7{fill:#c83838;}.cls-8{fill:#cdff91;}.cls-9{fill:#fff066;}.cls-10{fill:#ff9898;}.cls-11{fill:#34404d;}</style><clipPath id="clip-path"><circle class="cls-1" cx="68" cy="68" r="68"/></clipPath></defs><title>Artboard 1</title><circle class="cls-2" cx="68" cy="68" r="68"/><g class="cls-3"><line class="cls-4" x1="68" y1="18.38" x2="68" y2="117.63"/><line class="cls-4" x1="88" y1="18.38" x2="88" y2="117.63"/><line class="cls-4" x1="108" y1="18.38" x2="108" y2="117.63"/><line class="cls-4" x1="128" y1="18.38" x2="128" y2="117.63"/><line class="cls-4" x1="48" y1="18.38" x2="48" y2="117.63"/><line class="cls-4" x1="28" y1="18.38" x2="28" y2="117.63"/><line class="cls-4" x1="8" y1="18.38" x2="8" y2="117.63"/><rect class="cls-5" x="-11.15" y="33.3" width="99" height="18"/><rect class="cls-6" x="-11.15" y="60.3" width="117" height="18"/><rect class="cls-7" x="-11.15" y="87.3" width="63" height="18"/><path class="cls-8" d="M111.17,66.36h-3.49V61a.72.72,0,0,0-.72-.72h-5.33V56.8h0a2.4,2.4,0,0,0-4.8,0h0a2.46,2.46,0,0,0,0,.31v3.18H90.4a.72.72,0,0,0-.72.72h0v5.32h3.57a2.4,2.4,0,1,1,0,4.8H89.68v6.46a.72.72,0,0,0,.72.72h6.45V75a2.48,2.48,0,0,1,0-.31,2.4,2.4,0,1,1,4.8,0h0V78.3H107a.72.72,0,0,0,.72-.72h0V71.15h3.5a2.4,2.4,0,0,0-.05-4.79Z"/><path class="cls-9" d="M93.17,39.42h-3.5V34.09a.72.72,0,0,0-.67-.72H83.62v-3.5h0a2.4,2.4,0,0,0-4.8,0h0a2.46,2.46,0,0,0,0,.31v3.18H72.4a.72.72,0,0,0-.72.72h0V39.4h3.57a2.4,2.4,0,0,1,0,4.8H71.68v6.46a.72.72,0,0,0,.72.72h6.45V48.1a2.48,2.48,0,0,1,0-.31,2.4,2.4,0,1,1,4.8,0h0v3.58H89a.72.72,0,0,0,.72-.72h0V44.22h3.5a2.4,2.4,0,0,0-.05-4.8Z"/><path class="cls-10" d="M57.16,93.4H53.67V88.07a.72.72,0,0,0-.67-.72H47.62v-3.5h0a2.4,2.4,0,0,0-4.8,0,2.46,2.46,0,0,0,0,.31v3.18H36.39a.72.72,0,0,0-.72.72h0v5.32h3.57a2.4,2.4,0,0,1,0,4.8H35.68v6.46a.72.72,0,0,0,.72.72h6.45V102.1a2.48,2.48,0,0,1,0-.31,2.4,2.4,0,0,1,4.8,0h0v3.58H53a.72.72,0,0,0,.72-.72h0V98.2h3.5a2.4,2.4,0,1,0-.06-4.8Z"/><rect class="cls-11" x="-40.82" y="-71.04" width="210.67" height="89.37"/><rect class="cls-11" x="-40.82" y="117.3" width="210.67" height="89.37"/></g></svg>