<svg id="Layer_1" data-name="Layer 1" xmlns="http://www.w3.org/2000/svg" width="69.65" height="32.67" viewBox="0 0 69.65 32.67"><defs><style>.cls-1{fill:none;stroke:#fff;stroke-linecap:round;stroke-linejoin:round;stroke-width:1.5px;}</style></defs><title>Basic-White-Icon</title><path class="cls-1" d="M497.23,294.81V291a2,2,0,0,0-.38-1.18c-0.86-1.15-3.52-3.65-11.23-5.72a2,2,0,0,1-1.5-1.93c0-.53,0-1,0-1.27a2,2,0,0,1,.31-1.15,18.5,18.5,0,0,0,2.78-8.82c0-.86.15-7-6.86-7.26h0c-7,.28-7,6.4-7,7.26a19.13,19.13,0,0,0,2.56,8.63,2,2,0,0,1,.22,1.47,11.46,11.46,0,0,0-.21,1.3,2,2,0,0,1-1.49,1.75c-7.73,2.06-10.69,4.55-11.71,5.71a2,2,0,0,0-.48,1.31v3.72" transform="translate(-444.89 -262.89)"/><line class="cls-1" x1="0.75" y1="31.92" x2="68.9" y2="31.92"/></svg>