<svg xmlns="http://www.w3.org/2000/svg" viewBox="0 0 136 137"><circle fill="#42A7E9" cx="68" cy="68" r="68"/><path fill="#42A7E9" d="M125.2 104.8H10.8C22.9 123.6 44 136 68 136s45.1-12.4 57.2-31.2z"/><path fill="#FFF" d="M109 36.9H89.7V17.6H34.3c-3 0-5.5 2.4-5.5 5.5v76.4c0 3 2.4 5.5 5.5 5.5h69.6c3 0 5.5-2.4 5.5-5.5l-.4-62.6z"/><path fill="#387AA2" d="M89.1 42.2h-40c-.9 0-1.7-.8-1.7-1.7 0-.9.8-1.7 1.7-1.7h40c.9 0 1.7.8 1.7 1.7 0 1-.8 1.7-1.7 1.7z"/><path fill="#4282A0" d="M89.1 52.9h-40c-.9 0-1.7-.8-1.7-1.7s.8-1.7 1.7-1.7h40c.9 0 1.7.8 1.7 1.7s-.8 1.7-1.7 1.7z"/><path fill="#61A3C0" d="M89.1 64h-40c-.9 0-1.7-.8-1.7-1.7 0-.9.8-1.7 1.7-1.7h40c.9 0 1.7.8 1.7 1.7 0 .9-.8 1.7-1.7 1.7zM64.5 80.1c-.8 0-1.4-.5-1.6-1.3 0-.1-.1-.3-.1-.4 0-.8.5-1.4 1.3-1.6l22.2-5.9c.9-.2 1.8.3 2.1 1.2 0 .1.1.3.1.4 0 .8-.5 1.4-1.3 1.6l-22.2 6h-.5z"/><path fill="#9AA3A9" d="M89.7 36.9l19.4 20.9L109 37z"/><path fill="#0674B6" d="M109 36.9L89.7 17.6v19.3z"/><path fill="gray" d="M74.2 83.7L64 93.9c-.7.7-1.9.7-2.6 0l-5.1-5.1-5.4-5.4c-.7-.7-.7-1.9 0-2.6L61 70.7c-6.2-1.7-13.2-.1-18 4.8-4.2 4.2-5.9 9.8-5.3 15.2.1 1.2-.2 2.3-1.1 3.1L8.4 122c-.7.7-.7 1.9 0 2.6l11.8 11.8c.7.7 1.9.7 2.6 0L51 108.2c.8-.8 2-1.2 3.1-1.1 5.4.6 11.1-1.2 15.2-5.3 5-4.9 6.5-11.9 4.9-18.1zm-49.9 41.5c-1.3 1.3-3.4 1.3-4.8 0-1.3-1.3-1.3-3.4 0-4.8 1.3-1.3 3.5-1.3 4.8 0 1.4 1.4 1.4 3.5 0 4.8z"/><path fill="#AEAEAE" d="M74.2 83.7L64 93.9c-.7.7-1.9.7-2.6 0l-5.1-5.1-32 31.6c1.3 1.3 1.3 3.5 0 4.8-1.3 1.3-3.4 1.3-4.8 0l-5.4 5.3 5.9 5.9c.7.7 1.9.7 2.6 0L51 108.2c.8-.8 2-1.2 3.1-1.1 5.4.6 11.1-1.2 15.2-5.3 5-4.9 6.5-11.9 4.9-18.1z"/></svg>