<svg xmlns="http://www.w3.org/2000/svg" viewBox="0 0 136 136"><circle fill="#E85355" cx="68" cy="68" r="68"/><path fill="#FFF" d="M24.8 76.8c1.9-3.1 4.6-5.5 7.8-7L31 65.2l3.9-1.4 1.6 4.6c3.4-.8 7-.7 10.4.5l2.1-4.4 3.7 1.8-2.1 4.4c3.1 1.9 5.5 4.6 7 7.8l4.6-1.6 1.4 3.9-4.6 1.6c.8 3.4.7 7-.5 10.4l4.4 2.1-1.9 3.7-4.4-2.1c-1.9 3.1-4.6 5.5-7.8 7l1.6 4.6-3.9 1.4-1.6-4.6c-3.4.8-7 .7-10.4-.5l-2.1 4.4-3.7-1.8 2.1-4.4c-3.1-1.9-5.5-4.6-7-7.8l-4.6 1.6-1.4-3.9 4.6-1.6c-.8-3.4-.7-7 .5-10.4l-4.4-2.1 1.8-3.7 4.5 2.1zm11.8 18.5c4.8 2.3 10.5.3 12.8-4.5 2.3-4.8.3-10.5-4.5-12.8-4.9-2.2-10.6-.2-12.9 4.6-2.2 4.7-.2 10.5 4.6 12.7z"/><path fill="#C8C8C8" d="M63.2 45.4c2.5-4.5 6.3-8 10.6-10.3l-2.5-6.4 5.4-2.1 2.5 6.4c4.7-1.3 9.8-1.3 14.8.2l2.7-6.3 5.3 2.3-2.7 6.3c4.5 2.5 8 6.3 10.3 10.6l6.4-2.5 2.1 5.4-6.4 2.5c1.3 4.7 1.3 9.8-.2 14.8l6.3 2.7-2.3 5.3-6.3-2.7c-2.5 4.5-6.3 8-10.6 10.3l2.5 6.4-5.4 2.1-2.5-6.4c-4.7 1.3-9.8 1.3-14.8-.2l-2.7 6.3-5.3-2.3 2.7-6.3c-4.5-2.5-8-6.3-10.3-10.6l-6.4 2.5-2.1-5.4 6.4-2.5c-1.3-4.7-1.3-9.8.2-14.8L54.6 48l2.3-5.3 6.3 2.7zm17.6 25.5c6.9 3 14.9-.2 17.8-7.1 3-6.9-.2-14.9-7.1-17.8-6.9-3-14.9.2-17.8 7.1-2.9 6.9.2 14.9 7.1 17.8z"/><circle fill="#959595" cx="51" cy="10.5" r="1.6"/><circle fill="#959595" cx="51" cy="23.4" r="1.6"/><circle fill="#959595" cx="33.3" cy="15.1" r="1.6"/><circle fill="#959595" cx="33.3" cy="28" r="1.6"/><circle fill="#959595" cx="33.3" cy="40.9" r="1.6"/><circle fill="#959595" cx="33.3" cy="53.9" r="1.6"/><circle fill="#959595" cx="71.9" cy="131.2" r="1.6"/><circle fill="#959595" cx="71.9" cy="118.3" r="1.6"/><circle fill="#959595" cx="89.6" cy="126.5" r="1.6"/><circle fill="#959595" cx="89.6" cy="113.6" r="1.6"/><circle fill="#959595" cx="89.6" cy="100.7" r="1.6"/><circle fill="#959595" cx="86.2" cy="58.5" r="5.7"/></svg>