<svg xmlns="http://www.w3.org/2000/svg" viewBox="0 0 149.1 136"><circle fill="#F7B834" cx="75.5" cy="68" r="68"/><path opacity=".15" fill="#FFF" d="M10 74.7H7.9l.3 2.4H10v9.3c.7 2.4 1.5 4.8 2.4 7.1v-2.1h11.8v11.8h102.4V91.4h11.8v2.1c.9-2.3 1.8-4.7 2.4-7.1v-9.3h1.9l.3-2.4h-2V62.8h2.3c-.1-.8-.1-1.6-.2-2.4H141V49.6c-.7-2.4-1.5-4.8-2.4-7.1v3.6h-11.8V34.3h7.8l-1.5-2.4h-6.4v-8.6c-.8-.9-1.6-1.8-2.4-2.6v11.2h-11.8V20h11.2c-.8-.8-1.7-1.6-2.6-2.4h-8.7V11L110 9.5v8.2H98.2v-12h4.6c-2.3-1-4.6-1.9-7.1-2.6v.2H83.9V.5L81.5.2v3H69.6v-3l-2.4.3v2.7H55.3v-.1c-2.4.8-4.8 1.6-7.1 2.6h4.6v11.8H41.1V9.4l-2.4 1.5v6.6H30c-.9.8-1.7 1.6-2.6 2.4h11.2v11.8H26.8V20.6c-.8.9-1.6 1.7-2.4 2.6v8.6H18l-1.5 2.4h7.8V46H12.5v-3.6c-.9 2.3-1.8 4.7-2.4 7.1v10.8H8c-.1.8-.2 1.6-.2 2.4H10v12zm116.8-26.2h11.8v11.8h-11.8V48.5zm0 14.3h11.8v11.8h-11.8V62.8zm0 14.3h11.8V89h-11.8V77.1zm-14.3-42.8h11.8v11.8h-11.8V34.3zm0 14.2h11.8v11.8h-11.8V48.5zm0 14.3h11.8v11.8h-11.8V62.8zm0 14.3h11.8V89h-11.8V77.1zm0 14.3h11.8v11.8h-11.8V91.4zM98.2 20H110v11.8H98.2V20zm0 14.3H110v11.8H98.2V34.3zm0 14.2H110v11.8H98.2V48.5zm0 14.3H110v11.8H98.2V62.8zm0 14.3H110V89H98.2V77.1zm0 14.3H110v11.8H98.2V91.4zM83.9 5.7h11.8v11.8H83.9V5.7zm0 14.3h11.8v11.8H83.9V20zm0 14.3h11.8v11.8H83.9V34.3zm0 14.2h11.8v11.8H83.9V48.5zm0 14.3h11.8v11.8H83.9V62.8zm0 14.3h11.8V89H83.9V77.1zm0 14.3h11.8v11.8H83.9V91.4zM69.6 5.7h11.8v11.8H69.6V5.7zm0 14.3h11.8v11.8H69.6V20zm0 14.3h11.8v11.8H69.6V34.3zm0 14.2h11.8v11.8H69.6V48.5zm0 14.3h11.8v11.8H69.6V62.8zm0 14.3h11.8V89H69.6V77.1zm0 14.3h11.8v11.8H69.6V91.4zM55.3 5.7h11.8v11.8H55.3V5.7zm0 14.3h11.8v11.8H55.3V20zm0 14.3h11.8v11.8H55.3V34.3zm0 14.2h11.8v11.8H55.3V48.5zm0 14.3h11.8v11.8H55.3V62.8zm0 14.3h11.8V89H55.3V77.1zm0 14.3h11.8v11.8H55.3V91.4zM41.1 20h11.8v11.8H41.1V20zm0 14.3h11.8v11.8H41.1V34.3zm0 14.2h11.8v11.8H41.1V48.5zm0 14.3h11.8v11.8H41.1V62.8zm0 14.3h11.8V89H41.1V77.1zm0 14.3h11.8v11.8H41.1V91.4zM26.8 34.3h11.8v11.8H26.8V34.3zm0 14.2h11.8v11.8H26.8V48.5zm0 14.3h11.8v11.8H26.8V62.8zm0 14.3h11.8V89H26.8V77.1zm0 14.3h11.8v11.8H26.8V91.4zM12.5 48.5h11.8v11.8H12.5V48.5zm0 14.3h11.8v11.8H12.5V62.8zm0 14.3h11.8V89H12.5V77.1z"/><path fill="#F9E437" d="M25.2 59.9h15.2v44.3H25.2z"/><path opacity=".75" fill="#FFF" d="M25.2 59.9h15.2v44.3H25.2z"/><path fill="#F9E437" d="M53.7 71.3h15.2v32.9H53.7z"/><path opacity=".5" fill="#FFF" d="M53.7 71.3h15.2v32.9H53.7z"/><path fill="#F9E437" d="M82.2 42.8h15.2v61.4H82.2z"/><path opacity=".25" fill="#FFF" d="M82.2 42.8h15.2v61.4H82.2z"/><path fill="#F9E437" d="M110.6 59.9h15.2v44.3h-15.2z"/><path fill="none" stroke="#F29A3F" stroke-width="4.914" stroke-linecap="round" stroke-linejoin="round" stroke-miterlimit="10" d="M2.5 86.5L33 59.6l28.1 12.1 28.1-29.3 29.3 17.8 28.1-23.4"/><circle fill="#E85246" cx="32.8" cy="59.9" r="4"/><circle fill="#E85246" cx="61.3" cy="71.3" r="4"/><circle fill="#E85246" cx="89.8" cy="42.8" r="4"/><circle fill="#E85246" cx="118.3" cy="59.9" r="4"/><path fill="#F19232" d="M133.1 104.3H18C30.1 123.4 51.3 136 75.5 136c24.3 0 45.5-12.6 57.6-31.7z"/></svg>