<svg xmlns="http://www.w3.org/2000/svg" viewBox="0 0 136 136"><circle fill="#74E8B4" cx="68" cy="68" r="68"/><path d="M48.3 96.5V19.8c0-2 1.6-3.6 3.6-3.6h58.3c2 0 3.6 1.6 3.6 3.6v76.7c0 2-1.6 3.6-3.6 3.6H51.8c-1.9-.1-3.5-1.6-3.5-3.6z"/><circle fill="none" stroke="gray" stroke-width=".865" stroke-miterlimit="10" cx="81" cy="96.6" r="1.9"/><path fill="#4D4D4D" d="M54.8 23.1h52.5v70H54.8z"/><path fill="#FFF" d="M52.5 118.7H29c-3.2 0-5.7-2.6-5.7-5.7V52.7c0-3.2 2.6-5.7 5.7-5.7h23.5c3.2 0 5.7 2.6 5.7 5.7v60.2c.1 3.2-2.5 5.8-5.7 5.8z"/><path fill="#333" d="M26.1 55.7h29.1v54.1H26.1z"/><linearGradient id="a" gradientUnits="userSpaceOnUse" x1="35.014" y1="51.3" x2="35.706" y2="52.266"><stop offset=".005" stop-color="#171a1b"/><stop offset="1" stop-color="#6e706f"/></linearGradient><circle fill="url(#a)" cx="35.3" cy="51.7" r=".6"/><circle fill="#080809" cx="35.3" cy="51.7" r=".3"/><path fill="#080B0A" d="M43.3 51.3h-5c-.2 0-.3.1-.3.3 0 .2.1.3.3.3h5c.2 0 .3-.1.3-.3.1-.1-.1-.3-.3-.3z"/><path opacity=".8" fill="#171A1B" d="M43.3 51.4h-5c-.2 0-.3.1-.3.3 0 .2.1.3.3.3h5c.2 0 .3-.1.3-.3.1-.1-.1-.3-.3-.3zm0 .5h-5c-.1 0-.2-.1-.2-.2s.1-.2.2-.2h5c.1 0 .2.1.2.2.1.1 0 .2-.2.2z"/><linearGradient id="b" gradientUnits="userSpaceOnUse" x1="40.849" y1="51.424" x2="40.849" y2="52.014"><stop offset=".005" stop-color="#171a1b"/><stop offset="1" stop-color="#6e706f"/></linearGradient><path fill="url(#b)" d="M43.3 51.3h-5c-.2 0-.3.1-.3.3 0 .2.1.3.3.3h5c.2 0 .3-.1.3-.3.1-.1-.1-.3-.3-.3zm0 .6h-5c-.1 0-.2-.1-.2-.2s.1-.2.2-.2h5c.1 0 .2.1.2.2.1.1 0 .2-.2.2z"/><path d="M43.4 52.1h-5.1c-.2 0-.4-.2-.4-.4s.2-.4.4-.4h5.1c.2 0 .4.2.4.4.1.2-.1.4-.4.4z"/><circle cx="35.3" cy="51.7" r=".6"/><circle cx="40.8" cy="114.1" r="2.4"/><path fill="#88D2F0" d="M81 70.5c-6.8 0-12.4-5.6-12.4-12.4 0-6.8 5.6-12.4 12.4-12.4 6.8 0 12.4 5.6 12.4 12.4 0 6.9-5.6 12.4-12.4 12.4zm0-22.7c-5.7 0-10.3 4.6-10.3 10.3 0 5.7 4.6 10.3 10.3 10.3 5.7 0 10.3-4.6 10.3-10.3 0-5.7-4.6-10.3-10.3-10.3z"/><path fill="#FFF" d="M80.5 58.9c-2-.5-4.5-1-4.5-3.7 0-2.3 2-3.8 4.9-3.8 2.4 0 5 1.2 5.4 4.1l-2.3.4c0-.8-.1-1.4-.9-2-.8-.6-1.8-.8-2.4-.8-1.7 0-2.5 1-2.5 1.9 0 1.2 1.4 1.6 3 2l1.2.3c1.5.3 4.2 1 4.2 3.7 0 2.1-1.8 4-5.3 4-1.4 0-2.9-.3-3.9-1-.4-.3-1.6-1.3-1.9-3.4l2.4-.4c0 .6 0 1.6.9 2.5.8.6 1.7.7 2.6.7 1.9 0 3-.7 3-2.1 0-1.5-1.1-1.7-2.6-2l-1.3-.4z"/><path fill="#88D2F0" d="M40.8 90c-4 0-7.2-3.2-7.2-7.2s3.2-7.2 7.2-7.2 7.2 3.2 7.2 7.2c-.1 4-3.3 7.2-7.2 7.2zm0-13.2c-3.3 0-6 2.7-6 6s2.7 6 6 6 6-2.7 6-6c-.1-3.3-2.7-6-6-6z"/><path fill="#FFF" d="M40.5 83.2c-1.2-.3-2.6-.6-2.6-2.1 0-1.3 1.1-2.2 2.8-2.2 1.4 0 2.9.7 3.1 2.4l-1.3.2c0-.5 0-.8-.5-1.2-.5-.4-1-.4-1.4-.4-1 0-1.4.6-1.4 1.1 0 .7.8.9 1.8 1.2l.7.2c.9.2 2.4.6 2.4 2.1 0 1.2-1.1 2.3-3.1 2.3-.8 0-1.7-.2-2.3-.6-.2-.2-1-.8-1.1-2L39 84c0 .3 0 1 .5 1.4.4.4 1 .4 1.5.4 1.1 0 1.7-.4 1.7-1.2 0-.8-.6-1-1.5-1.2l-.7-.2z"/></svg>