<svg xmlns="http://www.w3.org/2000/svg" viewBox="0 0 759.3 714"><linearGradient id="a" gradientUnits="userSpaceOnUse" x1="36.135" y1="119.587" x2="36.135" y2="174.664"><stop offset="0" stop-color="#FFF"/><stop offset=".116" stop-color="#FFF" stop-opacity=".884"/><stop offset="1" stop-color="#FFF" stop-opacity="0"/></linearGradient><path opacity=".5" fill="url(#a)" d="M79.4 139.8h-.5c-1.4-4.5-5.5-7.8-10.5-7.8h-.7c-1.3.1-2.4-.6-3-1.7-3.4-6.4-10.1-10.8-17.9-10.8-8.4 0-15.5 5.1-18.6 12.3-.4.9-1.2 1.6-2.1 1.9-2.4-1.7-5.3-2.8-8.5-2.8-5.3 0-9.9 2.8-12.4 7-.8 1.3-2.4 1.9-3.9 1.4-4.4-1.5-9.8-1-15.1 2.9-.2.2-.6.5-.7.7-7.8 10.9-1.5 22.5 8.3 24.4.8.2 1.6.6 2.1 1.3 2.6 3.6 6.9 5.9 11.7 5.9 3.8 0 7.3-1.5 9.9-3.9 1.1-1 2.7-1.1 4-.3 3.1 1.9 6.7 3 10.6 3 6.2 0 11.7-2.7 15.4-7.1 1.1-1.3 3.1-1.5 4.5-.5 2.4 1.7 5.3 2.7 8.4 2.7 4.9 0 9.2-2.4 11.9-6.2.8-1.2 2.4-1.7 3.8-1.2 3.3 1.1 7.2.7 11.1-2.1.3-.2.5-.5.8-.8 6-8.7-.2-18.3-8.6-18.3z"/><linearGradient id="b" gradientUnits="userSpaceOnUse" x1="-3385.07" y1="158.568" x2="-3385.07" y2="247.513" gradientTransform="matrix(-1 0 0 1 -2696.667 0)"><stop offset="0" stop-color="#FFF"/><stop offset=".116" stop-color="#FFF" stop-opacity=".884"/><stop offset="1" stop-color="#FFF" stop-opacity="0"/></linearGradient><path opacity=".5" fill="url(#b)" d="M618.6 191.3h.8c2.2-7.3 8.9-12.6 16.9-12.6.9 0 1.7.1 2.6.2 1.1.2 2.2-.4 2.6-1.4 5.2-11.2 16.5-19 29.7-19 13.9 0 25.8 8.7 30.6 21 .3.8.9 1.4 1.7 1.6h.2c.7.2 1.5.1 2.1-.3 3.7-2.4 8.1-3.8 12.8-3.8 9.3 0 17.3 5.4 21.1 13.2.6 1.2 2 1.6 3.3 1.1 7.6-3.4 17.2-3 26.6 4.2.2.2.4.3.5.5 13.2 18 2.3 37.5-14.2 39.9-.7.1-1.4.5-1.8 1.1-4.2 6.3-11.4 10.4-19.5 10.4-6.9 0-13.1-3-17.4-7.7-.8-.9-2.2-1.1-3.3-.4-5.3 3.8-11.9 6.1-19 6.1-10.8 0-20.4-5.3-26.4-13.4-.9-1.2-2.5-1.4-3.6-.4-4.1 3.7-9.6 5.9-15.6 5.9-8.6 0-16.2-4.7-20.2-11.6-.6-1.1-2-1.6-3.2-1-5.7 2.7-13 2.4-20.2-2.9-.2-.2-.4-.3-.6-.6-10.4-14.4-.3-30.1 13.5-30.1z"/><linearGradient id="c" gradientUnits="userSpaceOnUse" x1="577.895" y1="9033.313" x2="577.895" y2="8979.498" gradientTransform="matrix(1 0 0 -1 -33.58 9318.457)"><stop offset="0" stop-color="#FFF"/><stop offset=".116" stop-color="#FFF" stop-opacity=".884"/><stop offset="1" stop-color="#FFF" stop-opacity="0"/></linearGradient><path opacity=".5" fill="url(#c)" d="M580.7 321.9c-.1.1-.2.3-.3.4-3.7 3.6-7.2 4.4-10.3 4-.7-.1-1.5.3-1.8.9-3.2 6.9-10.2 11.7-18.4 11.7-8.6 0-16-5.4-18.9-12.9-.2-.5-.6-.9-1.1-1-.5-.1-1 0-1.4.2-4.9 3.2-11.7 3.5-18.4-1.5-.1-.1-.3-.2-.4-.4-7.3-9.9-2.8-20.5 5.4-23.8.5-.2.8-.6 1-1 2.8-7.8 10.3-13.4 19.1-13.4 6.6 0 12.5 3.2 16.2 8.1.6.8 1.7 1 2.5.3 2.6-2.2 5.9-3.6 9.5-3.6 8 0 14.6 6.5 14.6 14.6v1.1c0 .5.2 1.1.6 1.4 3.8 3.3 5.5 9.2 2.1 14.9z"/><linearGradient id="d" gradientUnits="userSpaceOnUse" x1="451.665" y1="134.671" x2="451.665" y2="164.22"><stop offset="0" stop-color="#FFF"/><stop offset="1" stop-color="#FFF" stop-opacity="0"/></linearGradient><path fill="url(#d)" d="M497.4 163.9c-.1 0-2.6-6.4-3.1-7.2-2.4-4.3-5.6-9.8-11-10.4-6.2-.7-9.7 5.5-15.9.2-2.8-2.4-4.7-5.8-7.3-8.4-5.8-5.9-13.3-3.2-18.5 2-4.1 4.1-9.4 7.8-15.3 9.7-6.9 2.2-13.5.1-17 7.7-.6 1.3-1.5 6.5-3.3 6.5-.1-.1 91.4-.1 91.4-.1z"/><linearGradient id="e" gradientUnits="userSpaceOnUse" x1="782.791" y1="114.024" x2="782.791" y2="152.166"><stop offset="0" stop-color="#FFF"/><stop offset="1" stop-color="#FFF" stop-opacity="0"/></linearGradient><path opacity=".49" fill="url(#e)" d="M846.3 152.2C843 137.6 836 121.6 821 116c-11.5-4.2-24.9-1.5-33.5 7.1-6.3 6.2-11.5 15.8-20.3 15.5-8.3-.2-14.2-9.5-22.5-9.7-4.2-.1-8 2.3-11.2 5-6 5-10.9 11.2-14.3 18.2h127.1z"/><linearGradient id="f" gradientUnits="userSpaceOnUse" x1="658.035" y1="345.936" x2="658.035" y2="397.833"><stop offset="0" stop-color="#FFF"/><stop offset="1" stop-color="#FFF" stop-opacity="0"/></linearGradient><path opacity=".49" fill="url(#f)" d="M749.4 397.7c-1.2-6.8-4.2-13.3-8.8-18.5-7.8-8.8-18.7-12.2-30.2-12.3-8.8 0-18.2 1.3-26.7-1.2-8.2-2.5-14.9-8.6-22.3-12.7-16.3-8.9-33.3-10.9-41.1 9.4-1.6 4.2-2.2 8.9-5.1 12.3-3.7 4.6-10.3 5.8-16.2 5.9-8.1.2-17.4-.3-24 5.4-1.9 1.6-6 11.6-8.2 11.6-.1.1 182.6.1 182.6.1z"/><path fill="#64B4F2" d="M53.8 490.1L-210 747.5l263.8 257.4 263.7-257.4"/><path fill="#64B4F2" d="M90.3 505.5l-263.7 257.4 263.7 257.4 263.8-257.4"/><path fill="#64B4F2" d="M354.1 465.1L90.3 722.5l263.8 257.4 263.7-257.4"/><path fill="#53A9F0" d="M163.4 477.4l-263.9 265.8 223.6 218.2L386.9 704"/><path fill="#53A9F0" d="M451.7 420.2L187.9 677.6 451.7 935l263.7-257.4"/><path fill="#53A9F0" d="M394.3 450.9L130.6 708.3l263.7 257.4L658 708.3"/><path fill="#64B4F2" d="M-145.1 515.7l-263.7 257.4 263.7 257.4 263.8-257.4"/><path fill="#64B4F2" d="M-185.8 508.5L-418 730.4l263.7 257.4 263.7-257.4M869.7 504.6L689.6 365.1l-264.8 220 263.7 257.4 181.2-176.8"/><path fill="#64B4F2" d="M879.9 430.1l-82.7-98.6-215.7 257.4 215.7 257.4 82.7-98.7"/><path fill="#A9C3D0" d="M-586.2 903.3v-155l186.9-184.6 24.4 28.5 79.7-79.7 76.3 76.3 39.5-39.5 28.5 28.5 124.3-124.3 95.3 95.2 47.5-47.5 33 34.7 117.6-135.8 114.8 122.3 397.5 286.5v94.4"/><path fill="#E4E4E4" d="M113.2 543.3l-21.3-17.8-4 4M-36.5 561.5l93.8-24.1L44 524.1"/><linearGradient id="g" gradientUnits="userSpaceOnUse" x1="609.08" y1="938.615" x2="609.08" y2="1147.597" gradientTransform="rotate(-8.735 -1824.46 5495.89)"><stop offset="0" stop-color="#FFF"/><stop offset="1" stop-color="#B1B1B1"/></linearGradient><path opacity=".9" fill="url(#g)" d="M298.8 769.9L-459 886.4l-31.8-206.6L267 563.3"/><path opacity=".5" fill="#E4E4E4" d="M-84.4 776.8l200.3-153.2c-15.3 7.1-313.3 153.2-313.3 153.2"/><path fill="#5D9641" d="M150.4 643.2l-19.8-40.7-14.4 54.2-13.4-23.6-12.5 44.5L75.8 640l-17.1 71.5s-13.4-47.8-13.9-42.8S21 749.4 21 749.4s98.8 21.1 103.3 11.3c4.5-9.7 26.1-117.5 26.1-117.5z"/><path fill="#5D9641" d="M102.8 633.1l-.4 1.4c6.5 34.3 19.7 104.6 19.7 104.6l-5.1-85.5-.8 3.1-13.4-23.6zM62.5 732.3L59 710.8l-.2.7s-11.2-39.8-13.5-42.9l3.6 86.4c.7.1 1.4.3 2.1.4l11.5-23.1zM142.1 683.6c4.6-22.2 8.3-40.4 8.3-40.4l-19.8-40.7v.1l11.5 81zM92.6 669.6l-2.2 8-13.8-35.9 14.9 120c.4 0 .8.1 1.2.1v-92.2z"/><path fill="#B5E7F9" d="M474.2 500.8h90v90h-90z"/><path fill="#71EEB4" d="M289.1 389.8h-17.8v-11.2h17.8l-3.1 5.6"/><path fill="#98BC45" d="M283.2 383.6l-11.9 6.2v-11.2l11.9-6.2"/><path fill="#98BC45" d="M283.2 383.6l-11.9 6.2v-11.2l11.9-6.2"/><path fill="#71EEB4" d="M268.2 372.4h15v11.3h-15z"/><path fill="#6E4831" d="M266.1 372.4h2v34.8h-2z"/><path fill="#FFF" d="M293.6 435.4c6.3 0 7.8 3.8 11.7 5.7l-38.5-41-32.6 37.7c2.6 1.9 4.6 4.4 9.6 4.4 8.3 0 8.3-6.8 16.6-6.8s8.3 6.8 16.6 6.8 8.3-6.8 16.6-6.8zM-13.5 484.4c8.3 0 8.3 6.8 16.6 6.8 2.8 0 4.7-.8 6.2-1.8l-35.9-35.9-37.7 37.7h.9c8.3 0 8.3-6.8 16.6-6.8s8.3 6.8 16.6 6.8c8.4 0 8.4-6.8 16.7-6.8z"/><path opacity=".25" fill="#727170" d="M68.7 548.7l-95.3-95.2 45.8 149"/><path opacity=".5" fill="#E4E4E4" d="M19.2 602.5l49.5-53.8-1.8-1.8L14 585.7"/><path opacity=".25" fill="#727170" d="M266.8 400.1l37.6 130.1-43.7-43.7-77.7 84.8c-12.3-12.9-23.9-25-33.8-35.4l-.1-.1c-19.7-20.7-32.9-34.6-32.9-34.6L214.5 779l107.9-67.5c-2 .4-25.4-22.6-55.7-53.5l129.5 12.6 110.1-27.4L401 536.3l-19.4-14-114.8-122.2z"/><path fill="#E4E4E4" d="M401 536.3l-2.2-1.5L260 636.7l199.6-40.9"/><path fill="#53A9F0" d="M718.1 252.7h-44V225h44l-7.7 13.8"/><path fill="#53A9F0" d="M703.4 237.4l-29.3 15.3V225l29.3-15.4"/><path fill="#53A9F0" d="M703.4 237.4l-29.3 15.3V225l29.3-15.4"/><path fill="#53A9F0" d="M666.4 209.6h37v27.7h-37z"/><path fill="#6E4831" d="M661.4 209.6h5v85.8h-5z"/><path fill="#E3E3E3" d="M555 588.5L368.5 850.3h366.4"/><path fill="#D5E2E7" d="M663.6 285.3L41.7 878h879.1V551.9"/><path fill="#E4E4E4" d="M527.4 415.1l-53.2 85.7 107.2-137.1"/><path opacity=".5" fill="#E4E4E4" d="M270.8 747l180.8-153.9C436.3 600.2 157.8 747 157.8 747"/><path fill="#FFF" d="M663.6 285.3l-79.9 76.2c6.3 2.1 7.9 8 16.7 8 10.8 0 10.8-8.8 21.6-8.8s10.8 8.8 21.6 8.8 10.8-8.8 21.6-8.8 10.8 8.8 21.6 8.8 10.8-8.8 21.6-8.8 10.8 8.8 21.6 8.8c5.2 0 7.9-2 10.5-4.2l-76.9-80zM192.9 772.9L-4.3 688.4l-48.6 27.8-93.5-47.5-405.9 230.1v12.5h673.8l-82-82"/><path fill="#FFF" d="M828.2 958.6L251.3 551.4l-473.4 407.2"/><path opacity=".25" fill="#545E6D" d="M663.6 285.3L560.7 590.8l-35.1-30.2L420.4 671 251.3 551.4l234.9 359.1h248.1l25.2 16.9h161.3V551.9"/><path opacity=".5" fill="#E4E4E4" d="M846.4 474.7l-134.3 59.4s108.3-18.9 163.2-29.4l-28.9-30z"/><path opacity=".25" fill="#E4E4E4" d="M443.6 725.7L662 566.8c-19.4 8.7-293.5 133.4-293.5 133.4"/><path fill="#E4E4E4" d="M744 674.2c33.2-20.2 65.7-41.9 97.4-64.6v-53.2c-44.9 45-89.8 90.1-134.7 135.1l-9.9 9.9c16-8.5 31.7-17.8 47.2-27.2z"/><path fill="#5D9641" d="M843.5 539.3l-32.7-55.6-23.8 74-22.2-32.2-20.6 60.6-23.9-51.2-28.2 97.4s-22.2-65.2-23-58.3c-.8 6.9-39.4 110-39.4 110s212.6 32.3 220 19c7.5-13.2-6.2-163.7-6.2-163.7z"/><path fill="#5D9641" d="M786.3 671.4c1.7 0 3.3.2 4.9.6l-1.5-122.7-2.7 8.4-21.7-31.5-13 142.9c.5 0 33.4 2.3 34 2.3zM694.2 625.1l-2.1 7.3s-19.5-57.2-22.6-58.8L695 693.3c.5.1 1 .1 1.4.2l-2.2-68.4zM743.4 584.4l-23.1-49.5-.4 1.4 25.9 163.3c.9.1 1.8.2 2.6.3l-5-115.5z"/><path fill="#FFF" d="M921.9 685l-60.2-60.3-48.5 48.5-127.3-68.3-372.3 92.7v149.5l608.3 32.2"/><path fill="#E4E4E4" d="M813.2 673.2l-95.5-51.3-20.9 3.7c-1.5 1-115.4 17.1-115.4 17.1h82.5s-141 22.3-136.1 21.7c4.9-.6 187.6-10.4 187.6-10.4l60.3 19.6-86.9 23.6 194.8-19.6-49.2-25.4-21.2 21z"/><path opacity=".25" fill="#E4E4E4" d="M770.8 396.4l-106 74.5s71.3-24.9 132.1-47.5l-26.1-27z"/><path fill="#E4E4E4" d="M528.1 676.8s-97.4 13-95.4 13 122.3-6.5 122.3-6.5l-26.9-6.5zM610.6 676.4s-97.4 13-95.4 13 122.3-6.5 122.3-6.5l-26.9-6.5z"/><path opacity=".25" fill="#E4E4E4" d="M199.9 636.7l80.8-40.3 59.7 32.5-46.5-12.4"/><path opacity=".5" fill="#E4E4E4" d="M283.3 669.1l34.9-13.4 87.7 18.9-36.2 9-43.7-18"/><path fill="#8BC34F" d="M485 623.6l13 60.7h8.2"/><path fill="#5D9641" d="M513.7 630.8L500 682.4s6.7 3.2 6.3 1.9c-.5-1.3 7.4-53.5 7.4-53.5z"/><path fill="#8BC34F" d="M530.6 654L498 684.3h8.2l34.2-30.3"/><path fill="#5D9641" d="M550.2 665.7L530.6 654h9.8"/><ellipse fill="#CDCDCD" cx="713.3" cy="687.2" rx="4.7" ry="4.1"/><path fill="#8BC34F" d="M591 599l-21.7 58.7 9.1-1.8"/><path fill="#5D9641" d="M546.6 639.6l5.1-8.8h9.2"/><path fill="#8BC34F" d="M579.8 654l-18.9-23.2h-9.2L571 654"/><path fill="#5D9641" d="M556.9 632.7l16.7 21.3h3M596 626l-18.8 28 3 .9"/><path fill="#CDCDCD" d="M560.9 656.9c-.1 1.2 1.4 1.8 2.6 2 5.7.9 11.6 1.1 17.4.6 1.5-.1 3-.4 4.1-1.2 1.2-.9 1.8-2.6 1-3.8-.6-.9-1.7-1.2-2.7-1.5-6.9-1.6-14.4-.8-20.8 2.3-.8.3-1.6.8-1.6 1.6zM592.4 671.1c1.1.3 2.2.4 3.3.2l12.8-2.3c3.6-.7 7.1 1.6 8 5.2 1 4.1-2 8.2-6.2 8.5l-15.7 1.1h-1.1l-14.4-1.2c-3.8-.3-6.7-3.7-6.3-7.5l.1-1.5c.5-4.3 19.5-2.5 19.5-2.5z"/><path fill="#E4E4E4" d="M605.7 669.5l-9.9 1.8c-1.1.2-2.3.1-3.3-.2 0 0-1-.1-2.6-.2 6.5 5.1 15.9 12 15.9 12v-13.4z"/><path fill="#CDCDCD" d="M459.1 677.3c-.1 1.2 1 1.8 1.8 2 3.9.9 8 1.1 11.9.6 1-.1 2-.4 2.9-1.2.8-.9 1.2-2.6.7-3.8-.4-.9-1.1-1.2-1.8-1.5-4.8-1.6-9.9-.8-14.3 2.3-.6.3-1.2.8-1.2 1.6z"/><path fill="#E4E4E4" d="M476.3 674.8c-.4-.9-1.1-1.2-1.8-1.5-2.5-.9-5.2-1-7.8-.5l3.8 7.3c.8-.1 1.5-.1 2.3-.2 1-.1 2-.4 2.9-1.2.7-.9 1.2-2.7.6-3.9z"/><path fill="none" stroke="#6E4831" stroke-width="2.538" stroke-linecap="round" stroke-linejoin="round" stroke-miterlimit="10" d="M609.8 347.5v-28.7"/><path fill="#D67936" d="M623 308.4h8.6v13.2H623z"/><path fill="#B76128" d="M621.6 306.1h10.5v5.4h-10.5z"/><path fill="#F6CAB5" d="M601.572 299.902l1.43-1.926 2.49 1.848-1.432 1.927z"/><path fill="none" stroke="#666" stroke-width="3.192" stroke-miterlimit="10" d="M603.9 300.1l14.5 9.9"/><path fill="#E89D8D" d="M615 302.7h-.8l.6-1.4.3-.9c.5-1.6 1.9-2.8 3.5-2.8 2 0 3.7 1.9 3.7 4.2 0 1.6-.8 2.9-1.9 3.6l-.1.4c-.2.7.2 1.3.9 1.4.1 0 .3 0 .4.1 1.6.3-2.9 3.6-2.9 3.6h-.2s-1.3-4.4-1.5-5l-.1-.3c-.9-.5-1.6-1.6-1.9-2.9z"/><ellipse fill="#B1B1B1" cx="617.2" cy="306.7" rx="3.1" ry="2.9"/><path fill="#B1B1B1" d="M622.8 303.3v-4.9H619v1.1c0 2 1.7 3.8 3.8 3.8z"/><ellipse fill="#B1B1B1" cx="622.5" cy="300.5" rx="1.6" ry="2.7"/><circle fill="#22303E" cx="616.7" cy="301.7" r=".5"/><path fill="#5A89BF" d="M614.4 322.8h9.6l-3.3 5.9.4 17.7-3.6.1-.5-20.1"/><path fill="#22303E" d="M618.8 346.4l-1.8.7c-.4.2-.3.8.2.8h4v-1.5h-2.4z"/><path fill="#333" d="M621.9 307.3c-.5-.2-1.1-.4-1.6-.5-.8.3-1.6.4-2.5.4s-3.5 15.6-3.5 15.6h9.8l-.9-12.4c-.1.1-.2-2.7-1.3-3.1z"/><path fill="none" stroke="#EA5E56" stroke-width="1.652" stroke-linecap="round" stroke-linejoin="round" stroke-miterlimit="10" d="M624 320.5h-10.4"/><path fill="#B1B1B1" d="M623.8 302.2s0 1.2-1.1 2.2c-1.1.9-2.2 1.1-2.2 1.1l-.8-4.6 4.1 1.3z"/><path fill="#22303E" d="M615.4 303.7h1.3c0 .4-.3.8-.8.9-.2-.2-.4-.5-.5-.9z"/><circle fill="#B1B1B1" cx="617.2" cy="298.1" r="2.1"/><path fill="#B1B1B1" d="M620.3 295.3c-1.2 0-2.3.5-3 1.3 1 2.4 3.7 4.1 7 4.3.2-.5.3-.9.3-1.5-.1-2.2-2-4.1-4.3-4.1z"/><path fill="#EA5E56" d="M624.7 300.1l-10-2.8 7.8-8.6"/><path fill="#F6CAB5" d="M609.935 326l-1.96-1.386 1.79-2.53 1.96 1.385z"/><path fill="#666" d="M611.2 324.4l5.5-5.7c.4-.4.7-.9 1-1.4l3.8-8.2c.3-.7 0-1.5-.7-1.8-.7-.3-1.5 0-1.8.7l-3.8 8.2c-.1.3-.3.5-.5.7l-5.5 5.7 2 1.8z"/><path fill="#F3CCA1" d="M500.3 414.2h.8l-.6-1.4-.3-.9c-.5-1.6-1.9-2.8-3.5-2.8-2 0-3.7 1.9-3.7 4.2 0 1.6.8 2.9 1.9 3.6l.1.4c.2.7-.2 1.3-.9 1.4-.1 0-.3 0-.4.1-1.6.3 2.9 3.6 2.9 3.6h.2s1.3-4.4 1.5-5l.1-.3c.9-.6 1.7-1.6 1.9-2.9z"/><path fill="#DFA035" d="M492.6 414.7v-4.9h3.8v1.1c0 2.1-1.7 3.8-3.8 3.8z"/><ellipse fill="#DFA035" cx="492.9" cy="412" rx="1.6" ry="2.7"/><circle fill="#22303E" cx="498.7" cy="413.1" r=".5"/><path fill="#6E4831" d="M500.9 434.2l-9.6.1 3.4 5.8-.5 17.7 3.6.1.5-20"/><path fill="#EA5E56" d="M496.5 457.9l1.8.7c.4.2.3.8-.2.8h-4v-1.5h2.4z"/><path fill="#E3E3E3" d="M493.4 418.7c.5-.2 1.1-.4 1.6-.5.8.3 1.6.4 2.5.4s3.5 15.6 3.5 15.6h-9.8l.9-12.4c.1.1.3-2.6 1.3-3.1z"/><path fill="none" stroke="#EA5E56" stroke-width="1.652" stroke-linecap="round" stroke-linejoin="round" stroke-miterlimit="10" d="M491.3 431.9h10.4"/><path fill="#DFA035" d="M491.6 413.7s0 1.2 1.1 2.2c1.1.9 2.2 1.1 2.2 1.1l.8-4.6-4.1 1.3z"/><path fill="#22303E" d="M500 415.2h-1.3c0 .4.3.8.8.9.2-.3.4-.6.5-.9z"/><circle fill="#DFA035" cx="498.2" cy="409.6" r="2.1"/><path fill="#DFA035" d="M495.1 406.8c1.2 0 2.3.5 3 1.3-1 2.4-3.7 4.1-7 4.3-.2-.5-.3-.9-.3-1.5.1-2.3 1.9-4.1 4.3-4.1z"/><path fill="#8CC44F" d="M554.9 376.8h-4.1c-1.1 0-2.1-.7-2.6-1.7-.4-1-.2-2.2.6-3l5.1-5.1.8.7 1.4.4c-.1.4-.1.5-5.5 5.8 0 0-.1.1-.1.3 0 .1.1.2.2.2h4.1v2.4z"/><path fill="#F6CAB5" d="M561.2 361.5h.8l-.6-1.4-.3-.9c-.5-1.6-1.9-2.8-3.5-2.8-2 0-3.7 1.9-3.7 4.2 0 1.6.8 2.9 1.9 3.6l.1.4c.2.7-.2 1.3-.9 1.4-.1 0-.3 0-.4.1-1.6.3 2.9 3.6 2.9 3.6h.2s1.3-4.4 1.5-5l.1-.3c.9-.6 1.6-1.6 1.9-2.9z"/><path fill="#666" d="M553.4 362v-5h3.8v1.1c0 2.2-1.7 3.9-3.8 3.9z"/><ellipse fill="#666" cx="553.7" cy="359.3" rx="1.6" ry="2.7"/><circle fill="#22303E" cx="559.5" cy="360.4" r=".5"/><path fill="#1A1A1A" d="M561.8 381.5l-9.6.1 3.3 5.8-.4 17.7 3.6.1.5-20"/><path fill="#8CC44F" d="M557.4 405.2l1.8.7c.4.2.3.8-.2.8h-4v-1.5h2.4z"/><radialGradient id="h" cx="557.065" cy="373.558" r="6.639" gradientUnits="userSpaceOnUse"><stop offset="0" stop-color="#4B9E5F"/><stop offset="1" stop-color="#3F874B"/></radialGradient><path fill="url(#h)" d="M554.3 366c.5-.2 1.1-.4 1.6-.5.8.3 1.6.4 2.5.4s3.5 15.6 3.5 15.6h-9.8l.9-12.4c.1.1.2-2.6 1.3-3.1z"/><path fill="none" stroke="#EA5E56" stroke-width="1.652" stroke-linecap="round" stroke-linejoin="round" stroke-miterlimit="10" d="M552.2 379.2h10.4"/><path fill="#666" d="M552.4 361s0 1.2 1.1 2.2c1.1.9 2.2 1.1 2.2 1.1l.8-4.6-4.1 1.3z"/><path fill="#22303E" d="M560.8 362.5h-1.3c0 .4.3.8.8.9.2-.3.4-.6.5-.9z"/><circle fill="#666" cx="559" cy="356.9" r="2.1"/><path fill="#666" d="M555.9 354c1.2 0 2.3.5 3 1.3-1 2.4-3.7 4.1-7 4.3-.2-.5-.3-.9-.3-1.5.1-2.2 2-4.1 4.3-4.1z"/><path fill="none" stroke="#EA5E56" stroke-width="1.652" stroke-linecap="round" stroke-linejoin="round" stroke-miterlimit="10" d="M439.3 491.3s58.7-14.9 58.8-59.4"/><path fill="#865D45" d="M440.288 491.906l1.96-1.386 1.79 2.53-1.96 1.387zM437 471.3h.8l-.6-1.4-.3-.9c-.5-1.6-1.9-2.8-3.5-2.8-2 0-3.7 1.9-3.7 4.2 0 1.6.8 2.9 1.9 3.6l.1.4c.2.7-.2 1.3-.9 1.4-.1 0-.3 0-.4.1-1.6.3 2.9 3.6 2.9 3.6h.2s1.3-4.4 1.5-5l.1-.3c.9-.6 1.7-1.7 1.9-2.9z"/><path fill="#333" d="M429.3 471.8v-4.9h3.8v1.1c0 2.1-1.7 3.8-3.8 3.8z"/><ellipse fill="#333" cx="429.6" cy="469" rx="1.6" ry="2.7"/><circle fill="#22303E" cx="435.4" cy="470.2" r=".5"/><path fill="#7BB9D7" d="M437.6 491.3H428l3.4 5.9-.5 17.7 3.6.1.5-20.1"/><radialGradient id="i" cx="433.071" cy="515.688" r="1.644" gradientUnits="userSpaceOnUse"><stop offset="0" stop-color="#0DA760"/><stop offset="1" stop-color="#038F4B"/></radialGradient><path fill="url(#i)" d="M433.2 514.9l1.8.7c.4.2.3.8-.2.8h-4v-1.5h2.4z"/><path fill="#EBB62F" d="M430.1 475.8c.5-.2 1.1-.4 1.6-.5.8.3 1.6.4 2.5.4s3.5 15.6 3.5 15.6H428l.9-12.4c0 .1.2-2.6 1.2-3.1z"/><path fill="none" stroke="#EA5E56" stroke-width="1.652" stroke-linecap="round" stroke-linejoin="round" stroke-miterlimit="10" d="M428 489h10.4"/><path fill="#333" d="M428.3 470.7s0 1.2 1.1 2.2c1.1.9 2.2 1.1 2.2 1.1l.8-4.6-4.1 1.3z"/><path fill="#22303E" d="M436.7 472.2h-1.3c0 .4.3.8.8.9.2-.2.4-.5.5-.9z"/><circle fill="#333" cx="427.9" cy="467.6" r="2.1"/><circle fill="#333" cx="429.6" cy="464.7" r="2.1"/><circle fill="#333" cx="432.4" cy="464.7" r="2.1"/><circle fill="#333" cx="434.9" cy="466.6" r="2.1"/><path fill="#333" d="M431.8 463.8c1.2 0 2.3.5 3 1.3-1 2.4-3.7 4.1-7 4.3-.2-.5-.3-.9-.3-1.5.1-2.2 1.9-4.1 4.3-4.1z"/><path fill="#24303D" d="M440.8 492.9l-5.5-5.7c-.4-.4-.7-.9-1-1.4l-3.8-8.2c-.3-.7 0-1.5.7-1.8.7-.3 1.5 0 1.8.7l3.8 8.2c.1.3.3.5.5.7l5.5 5.7-2 1.8z"/><path fill="none" stroke="#EA5E56" stroke-width="1.652" stroke-linecap="round" stroke-linejoin="round" stroke-miterlimit="10" d="M503.6 431.9s52-14.8 62.8-50.1"/><path fill="#F6CAB5" d="M564.523 382.16l1.96-1.386 1.79 2.53-1.96 1.387z"/><path fill="#8CC44F" d="M565 383.1l-5.5-5.7c-.4-.4-.7-.9-1-1.4l-3.8-8.2c-.3-.7 0-1.5.7-1.8.7-.3 1.5 0 1.8.7l3.8 8.2c.1.3.3.5.5.7l5.5 5.7-2 1.8z"/><path fill="#F3CCA1" d="M503.558 433.382l1.713-1.68 2.172 2.212-1.713 1.68z"/><path fill="#24303D" d="M504.1 434l-5.5-3.9c-.4-.4-.7-.9-1-1.4l-3.8-8.2c-.3-.7 0-1.5.7-1.8.7-.3 1.5 0 1.8.7l3.8 8.2c.1.3.3.5.5.7l5.5 3.9-2 1.8z"/><path fill="none" stroke="#6E4831" stroke-width="2.386" stroke-linecap="round" stroke-linejoin="round" stroke-miterlimit="10" d="M235.1 443.9l-5.4 25.5"/><radialGradient id="j" cx="224.941" cy="445.689" r="2.847" gradientUnits="userSpaceOnUse"><stop offset="0" stop-color="#4B9E5F"/><stop offset="1" stop-color="#3F874B"/></radialGradient><path fill="url(#j)" d="M226.7 448.8h-2.6c-.7 0-1.3-.4-1.6-1.1-.3-.7-.1-1.4.4-1.9l3.2-3.2.5.4.9.2c-.1.3-.1.3-3.5 3.7 0 0-.1.1 0 .2 0 .1.1.1.2.1h2.6v1.6z"/><path fill="#E89D8D" d="M229.3 439.7h.5l-.4-.9c-.1-.2-.1-.4-.2-.6-.3-1-1.2-1.8-2.2-1.8-1.3 0-2.3 1.2-2.3 2.7 0 1 .5 1.9 1.2 2.3l.1.3c.1.4-.2.8-.6.9h-.3c-1 .2 1.8 2.3 1.8 2.3h.1s.8-2.8 1-3.2l.1-.2c.5-.3 1-1 1.2-1.8z"/><path fill="#666" d="M224.4 440v-3.1h2.4v.7c0 1.3-1.1 2.4-2.4 2.4z"/><ellipse fill="#666" cx="224.6" cy="438.3" rx="1" ry="1.7"/><circle fill="#22303E" cx="228.3" cy="439" r=".3"/><path fill="#1A1A1A" d="M229.7 452.4h-6.1l2.1 3.7-.3 11.2 2.3.1.3-12.7"/><path fill="#666" d="M226.9 467.4l1.1.5c.2.1.2.5-.1.5h-2.5v-1h1.5z"/><radialGradient id="k" cx="226.691" cy="447.338" r="4.207" gradientUnits="userSpaceOnUse"><stop offset="0" stop-color="#4B9E5F"/><stop offset="1" stop-color="#3F874B"/></radialGradient><path fill="url(#k)" d="M224.9 442.6c.3-.1.7-.3 1-.3.5.2 1 .3 1.6.3s2.2 9.9 2.2 9.9h-6.2l.6-7.8c.1-.1.2-1.8.8-2.1z"/><path fill="none" stroke="#EA5E56" stroke-width="1.553" stroke-linecap="round" stroke-linejoin="round" stroke-miterlimit="10" d="M223.6 450.9h6.6"/><path fill="#22303E" d="M229.1 440.3h-.8c0 .3.2.5.5.6l.3-.6z"/><circle fill="#666" cx="227.9" cy="436.8" r="1.4"/><path fill="#666" d="M225.9 435c.8 0 1.4.3 1.9.8-.6 1.5-2.3 2.6-4.4 2.7-.1-.3-.2-.6-.2-.9.1-1.4 1.3-2.6 2.7-2.6z"/><path fill="none" stroke="#EA5E56" stroke-width="1.553" stroke-linecap="round" stroke-linejoin="round" stroke-miterlimit="10" d="M196 479.1s3.9 7.2 33.8-28.2"/><path fill="#F6CAB5" d="M231.386 452.824l1.225-.866 1.156 1.633-1.225.867z"/><radialGradient id="l" cx="229.031" cy="447.9" r="4.768" gradientUnits="userSpaceOnUse"><stop offset="0" stop-color="#4B9E5F"/><stop offset="1" stop-color="#3F874B"/></radialGradient><path fill="url(#l)" d="M231.7 453.4l-3.5-3.6c-.3-.3-.5-.6-.6-.9l-2.4-5.2c-.2-.4 0-.9.4-1.1.4-.2.9 0 1.1.4l2.4 5.2c.1.2.2.3.3.5l3.5 3.6-1.2 1.1z"/><radialGradient id="m" cx="229.031" cy="447.9" r="4.768" gradientUnits="userSpaceOnUse"><stop offset="0" stop-color="#4B9E5F"/><stop offset="1" stop-color="#3F874B"/></radialGradient><path fill="url(#m)" d="M231.7 453.4l-3.5-3.6c-.3-.3-.5-.6-.6-.9l-2.4-5.2c-.2-.4 0-.9.4-1.1.4-.2.9 0 1.1.4l2.4 5.2c.1.2.2.3.3.5l3.5 3.6-1.2 1.1z"/><circle fill="#333" cx="193.5" cy="465.7" r="2.9"/><path fill="none" stroke="#8DAFD4" stroke-width="3.105" stroke-linecap="round" stroke-linejoin="round" stroke-miterlimit="10" d="M192.2 471.7c0 .1-1.9 1.9-3.3 3.3-.6.6-.2 1.6.7 1.6h2.6"/><path fill="#6E4831" d="M196.2 467.6h.6l-.5-1.4-.1.3c-.2-1.2-1.2-2.1-2.3-2.1-1.3 0-2.3 1.2-2.3 2.7 0 1 .5 1.9 1.2 2.3l.1.3c.1.4-.2.8-.6.9h-.3c-1 .2 1.8 2.3 1.8 2.3h.1s.8-2.8 1-3.2l.1-.2c.6-.4 1.1-1.1 1.2-1.9z"/><path fill="#333" d="M196.4 466.2c.4-.2.5-.7.2-1-.3-.5-.8-1-1.2-1.3-.9-.6-2.1-.6-3.1 0h-.1c-.3.2-.6.4-.8.7l1 1c.2.2.4.2.7.1.2.2.5.3.8.3.3 0 .5-.1.7-.2l.5.3c.4.3.9.4 1.3.1z"/><path fill="#333" d="M191.3 468v-3.1h2.4v.7c0 1.3-1 2.4-2.4 2.4z"/><ellipse fill="#333" cx="191.5" cy="466.2" rx="1" ry="1.7"/><path fill="#22303E" d="M196.4 493.8l.9.8c.2.2 0 .5-.3.4l-2.4-.9.3-.9 1.5.6z"/><circle fill="#22303E" cx="195.2" cy="466.9" r=".3"/><path fill="#1A1A1A" d="M197 494.1l-2.2-.9 2.8-6.9-4.9-6.5 1.8-1.3 5.7 7.5"/><path fill="#1A1A1A" d="M191.298 481.093l2.3.06-.38 14.496-2.3-.06z"/><path fill="#1A1A1A" d="M191.2 485.4l-1-4.7h6.1"/><path fill="#22303E" d="M192.4 495.6l1.1.5c.2.1.2.5-.1.5h-2.5v-1h1.5z"/><path fill="#72B7D4" d="M191.5 470.8c.3-.1.7-.3 1-.3.5.2 1 .3 1.6.3s2.2 9.9 2.2 9.9h-6.2l.6-7.8c.1-.1.2-1.8.8-2.1z"/><path fill="none" stroke="#EA5E56" stroke-width="1.553" stroke-linecap="round" stroke-linejoin="round" stroke-miterlimit="10" d="M190.2 479.2h6.6"/><path fill="#6E4831" d="M201.4 476.2h2v1.5h-2z"/><path fill="#8DAFD4" d="M201.6 477.8H199c-1.9 0-3.7-1-4.7-2.6l-2.2-3.5c-.2-.4-.1-.9.2-1.1.4-.2.9-.1 1.1.2l2.2 3.5c.7 1.2 2 1.9 3.4 1.9h2.6v1.6z"/><path fill="#333" d="M190.7 467.3s0 .8.7 1.4c.7.6 1.4.7 1.4.7l.5-2.9-2.6.8z"/><ellipse fill="#333" cx="193" cy="466.3" rx="1.1" ry="1.2"/><path fill="#22303E" d="M196 468.3h-.8c0 .3.2.5.5.6.1-.3.2-.4.3-.6z"/><path fill="none" stroke="#6E4831" stroke-width="2.538" stroke-linecap="round" stroke-linejoin="round" stroke-miterlimit="10" d="M603.2 274.6v26.6"/><circle cx="603.2" cy="270.8" r="13.3"/><path fill="#FFF" d="M603.2 284.4c-7.5 0-13.6-6.1-13.6-13.6s6.1-13.6 13.6-13.6 13.6 6.1 13.6 13.6-6.1 13.6-13.6 13.6zm-.1-25c-6.3 0-11.3 5.1-11.3 11.4 0 6.3 5.1 11.3 11.4 11.3 6.3 0 11.3-5.1 11.3-11.4 0-6.2-5.1-11.3-11.4-11.3z"/><path fill="#FFF" d="M602.6 271.6c-2.2-.5-5-1.1-5-4 0-2.5 2.1-4.1 5.4-4.1 2.7 0 5.5 1.3 6 4.5l-2.5.3c0-.9-.1-1.5-1-2.2-.9-.7-2-.8-2.7-.8-1.8 0-2.7 1.1-2.7 2 0 1.3 1.5 1.7 3.3 2.2l1.3.3c1.7.4 4.6 1.1 4.6 4 0 2.3-2 4.4-5.8 4.4-1.6 0-3.2-.3-4.3-1.1-.4-.3-1.8-1.4-2.1-3.8l2.7-.4c0 .6 0 1.8 1 2.7.8.7 1.9.8 2.8.8 2.1 0 3.3-.8 3.3-2.3 0-1.6-1.2-1.9-2.9-2.2l-1.4-.3z"/></svg>